<?xml version="1.0" encoding="UTF-8" standalone="no"?>
<!DOCTYPE svg PUBLIC "-//W3C//DTD SVG 1.1//EN" "http://www.w3.org/Graphics/SVG/1.1/DTD/svg11.dtd">
<svg width="100%" height="100%" viewBox="0 0 1200 1200" version="1.1" xmlns="http://www.w3.org/2000/svg" xmlns:xlink="http://www.w3.org/1999/xlink" xml:space="preserve" xmlns:serif="http://www.serif.com/" style="fill-rule:evenodd;clip-rule:evenodd;stroke-linejoin:round;stroke-miterlimit:2;">
    <path d="M1200,200.945L1200,999.055C1200,1109.96 1109.96,1200 999.055,1200L200.945,1200C90.04,1200 0,1109.96 0,999.055L0,200.945C0,90.04 90.04,0 200.945,0L999.055,0C1109.96,0 1200,90.04 1200,200.945Z" style="fill:rgb(15,17,23);"/>
    <g transform="matrix(1,0,0,1,-29.660052,-53.913114)">
        <path d="M918.508,313.297L918.508,772.842C918.508,834.991 868.05,885.448 805.901,885.448L453.419,885.448C391.27,885.448 340.812,834.991 340.812,772.842L340.812,313.297C340.812,251.147 391.27,200.69 453.419,200.69L805.901,200.69C868.05,200.69 918.508,251.147 918.508,313.297Z" style="fill:rgb(59,130,246);"/>
    </g>
    <g transform="matrix(-1.372175,0,-0,-1,1413.102772,1917.535326)">
        <path d="M592.565,864.312L703.797,1086.776L481.333,1086.776L592.565,864.312Z" style="fill:rgb(59,130,246);"/>
    </g>
    <g transform="matrix(0.766182,0,0,0.766182,76.053269,371.011673)">
        <circle cx="523.685" cy="389.134" r="76.315" style="fill:rgb(15,17,23);"/>
    </g>
    <g transform="matrix(0.766182,0,0,0.766182,321.470995,371.011673)">
        <circle cx="523.685" cy="389.134" r="76.315" style="fill:rgb(15,17,23);"/>
    </g>
    <g transform="matrix(0.822157,0,0,1.392561,90.305325,-236.624796)">
        <path d="M840.32,448.225C840.32,480.839 795.472,507.317 740.231,507.317L499.665,507.317C444.425,507.317 399.577,480.839 399.577,448.225C399.577,415.612 444.425,389.134 499.665,389.134L740.231,389.134C795.472,389.134 840.32,415.612 840.32,448.225Z" style="fill:rgb(15,17,23);"/>
    </g>
</svg>
